<mxfile host="app.diagrams.net" agent="Mozilla/5.0 (Windows NT 10.0; Win64; x64) AppleWebKit/537.36 (KHTML, like Gecko) Chrome/139.0.0.0 Safari/537.36" version="28.0.9">
  <diagram name="Page-1" id="KqmntbThpOuOFVzjJuNc">
    <mxGraphModel dx="2377" dy="1308" grid="1" gridSize="10" guides="1" tooltips="1" connect="1" arrows="1" fold="1" page="1" pageScale="1" pageWidth="850" pageHeight="1100" math="0" shadow="0">
      <root>
        <mxCell id="0" />
        <mxCell id="1" parent="0" />
        <mxCell id="mzn5P4DBW5ug80A-4Pqy-4" value="" style="edgeStyle=orthogonalEdgeStyle;rounded=0;orthogonalLoop=1;jettySize=auto;html=1;" parent="1" source="mzn5P4DBW5ug80A-4Pqy-1" target="mzn5P4DBW5ug80A-4Pqy-3" edge="1">
          <mxGeometry relative="1" as="geometry" />
        </mxCell>
        <mxCell id="mzn5P4DBW5ug80A-4Pqy-1" value="START" style="ellipse;whiteSpace=wrap;html=1;" parent="1" vertex="1">
          <mxGeometry x="363.51" y="40" width="103" height="40" as="geometry" />
        </mxCell>
        <mxCell id="mzn5P4DBW5ug80A-4Pqy-6" value="" style="edgeStyle=orthogonalEdgeStyle;rounded=0;orthogonalLoop=1;jettySize=auto;html=1;" parent="1" source="mzn5P4DBW5ug80A-4Pqy-3" target="mzn5P4DBW5ug80A-4Pqy-5" edge="1">
          <mxGeometry relative="1" as="geometry" />
        </mxCell>
        <mxCell id="mzn5P4DBW5ug80A-4Pqy-3" value="CREATE REQUEST" style="rounded=0;whiteSpace=wrap;html=1;" parent="1" vertex="1">
          <mxGeometry x="354.51" y="110" width="120" height="40" as="geometry" />
        </mxCell>
        <mxCell id="hs7QzX6rAlsoO4wkpSxL-4" value="" style="edgeStyle=orthogonalEdgeStyle;rounded=0;orthogonalLoop=1;jettySize=auto;html=1;" edge="1" parent="1" source="mzn5P4DBW5ug80A-4Pqy-5" target="hs7QzX6rAlsoO4wkpSxL-3">
          <mxGeometry relative="1" as="geometry" />
        </mxCell>
        <mxCell id="hs7QzX6rAlsoO4wkpSxL-15" value="YES" style="edgeLabel;html=1;align=center;verticalAlign=middle;resizable=0;points=[];" vertex="1" connectable="0" parent="hs7QzX6rAlsoO4wkpSxL-4">
          <mxGeometry x="-0.325" y="-1" relative="1" as="geometry">
            <mxPoint as="offset" />
          </mxGeometry>
        </mxCell>
        <mxCell id="mzn5P4DBW5ug80A-4Pqy-5" value="1ST APPROVER&lt;div&gt;APPROVED??&lt;/div&gt;" style="rhombus;whiteSpace=wrap;html=1;" parent="1" vertex="1">
          <mxGeometry x="352.51" y="180" width="125" height="90" as="geometry" />
        </mxCell>
        <mxCell id="mzn5P4DBW5ug80A-4Pqy-9" style="edgeStyle=orthogonalEdgeStyle;rounded=0;orthogonalLoop=1;jettySize=auto;html=1;entryX=0.003;entryY=0.437;entryDx=0;entryDy=0;entryPerimeter=0;exitX=0;exitY=0.5;exitDx=0;exitDy=0;" parent="1" source="mzn5P4DBW5ug80A-4Pqy-5" edge="1">
          <mxGeometry relative="1" as="geometry">
            <mxPoint x="352.15" y="217.51999999999998" as="sourcePoint" />
            <mxPoint x="354.51" y="120" as="targetPoint" />
            <Array as="points">
              <mxPoint x="332.51" y="225" />
              <mxPoint x="332.51" y="120" />
            </Array>
          </mxGeometry>
        </mxCell>
        <mxCell id="mzn5P4DBW5ug80A-4Pqy-11" value="NO" style="edgeLabel;html=1;align=center;verticalAlign=middle;resizable=0;points=[];" parent="mzn5P4DBW5ug80A-4Pqy-9" vertex="1" connectable="0">
          <mxGeometry x="-0.0031" relative="1" as="geometry">
            <mxPoint y="38" as="offset" />
          </mxGeometry>
        </mxCell>
        <mxCell id="hs7QzX6rAlsoO4wkpSxL-6" value="" style="edgeStyle=orthogonalEdgeStyle;rounded=0;orthogonalLoop=1;jettySize=auto;html=1;" edge="1" parent="1" source="hs7QzX6rAlsoO4wkpSxL-3" target="hs7QzX6rAlsoO4wkpSxL-5">
          <mxGeometry relative="1" as="geometry" />
        </mxCell>
        <mxCell id="hs7QzX6rAlsoO4wkpSxL-3" value="FACILITY PERSONNEL REVIEW" style="whiteSpace=wrap;html=1;" vertex="1" parent="1">
          <mxGeometry x="355.01" y="310" width="120" height="60" as="geometry" />
        </mxCell>
        <mxCell id="hs7QzX6rAlsoO4wkpSxL-9" value="" style="edgeStyle=orthogonalEdgeStyle;rounded=0;orthogonalLoop=1;jettySize=auto;html=1;" edge="1" parent="1" source="hs7QzX6rAlsoO4wkpSxL-5" target="hs7QzX6rAlsoO4wkpSxL-8">
          <mxGeometry relative="1" as="geometry" />
        </mxCell>
        <mxCell id="hs7QzX6rAlsoO4wkpSxL-5" value="ASSIGN PERSON INCHARGE WITH REQUEST CATEGORY" style="whiteSpace=wrap;html=1;" vertex="1" parent="1">
          <mxGeometry x="532.76" y="310" width="139.5" height="60" as="geometry" />
        </mxCell>
        <mxCell id="hs7QzX6rAlsoO4wkpSxL-13" value="" style="edgeStyle=orthogonalEdgeStyle;rounded=0;orthogonalLoop=1;jettySize=auto;html=1;" edge="1" parent="1" source="hs7QzX6rAlsoO4wkpSxL-8" target="hs7QzX6rAlsoO4wkpSxL-12">
          <mxGeometry relative="1" as="geometry" />
        </mxCell>
        <mxCell id="hs7QzX6rAlsoO4wkpSxL-14" value="INHOUSE" style="edgeLabel;html=1;align=center;verticalAlign=middle;resizable=0;points=[];" vertex="1" connectable="0" parent="hs7QzX6rAlsoO4wkpSxL-13">
          <mxGeometry x="-0.1647" y="1" relative="1" as="geometry">
            <mxPoint as="offset" />
          </mxGeometry>
        </mxCell>
        <mxCell id="hs7QzX6rAlsoO4wkpSxL-41" value="" style="edgeStyle=orthogonalEdgeStyle;rounded=0;orthogonalLoop=1;jettySize=auto;html=1;" edge="1" parent="1" source="hs7QzX6rAlsoO4wkpSxL-8" target="hs7QzX6rAlsoO4wkpSxL-40">
          <mxGeometry relative="1" as="geometry" />
        </mxCell>
        <mxCell id="hs7QzX6rAlsoO4wkpSxL-42" value="OUT&lt;div&gt;SOURCE&lt;/div&gt;" style="edgeLabel;html=1;align=center;verticalAlign=middle;resizable=0;points=[];" vertex="1" connectable="0" parent="hs7QzX6rAlsoO4wkpSxL-41">
          <mxGeometry x="-0.1611" y="-1" relative="1" as="geometry">
            <mxPoint x="1" as="offset" />
          </mxGeometry>
        </mxCell>
        <mxCell id="hs7QzX6rAlsoO4wkpSxL-8" value="INHOUSE OR&amp;nbsp;&lt;div&gt;OUT-SOURCE ??&lt;/div&gt;" style="rhombus;whiteSpace=wrap;html=1;" vertex="1" parent="1">
          <mxGeometry x="540.51" y="390" width="124.5" height="100" as="geometry" />
        </mxCell>
        <mxCell id="hs7QzX6rAlsoO4wkpSxL-17" value="" style="edgeStyle=orthogonalEdgeStyle;rounded=0;orthogonalLoop=1;jettySize=auto;html=1;" edge="1" parent="1" source="hs7QzX6rAlsoO4wkpSxL-12" target="hs7QzX6rAlsoO4wkpSxL-16">
          <mxGeometry relative="1" as="geometry" />
        </mxCell>
        <mxCell id="hs7QzX6rAlsoO4wkpSxL-18" value="YES" style="edgeLabel;html=1;align=center;verticalAlign=middle;resizable=0;points=[];" vertex="1" connectable="0" parent="hs7QzX6rAlsoO4wkpSxL-17">
          <mxGeometry x="-0.1799" y="-1" relative="1" as="geometry">
            <mxPoint as="offset" />
          </mxGeometry>
        </mxCell>
        <mxCell id="hs7QzX6rAlsoO4wkpSxL-32" style="edgeStyle=orthogonalEdgeStyle;rounded=0;orthogonalLoop=1;jettySize=auto;html=1;entryX=0.5;entryY=0;entryDx=0;entryDy=0;" edge="1" parent="1" source="hs7QzX6rAlsoO4wkpSxL-12" target="hs7QzX6rAlsoO4wkpSxL-30">
          <mxGeometry relative="1" as="geometry" />
        </mxCell>
        <mxCell id="hs7QzX6rAlsoO4wkpSxL-12" value="HAS&lt;br&gt;&lt;div&gt;MATERIALS?&lt;/div&gt;" style="rhombus;whiteSpace=wrap;html=1;" vertex="1" parent="1">
          <mxGeometry x="352.51" y="390" width="115.75" height="100" as="geometry" />
        </mxCell>
        <mxCell id="hs7QzX6rAlsoO4wkpSxL-20" value="" style="edgeStyle=orthogonalEdgeStyle;rounded=0;orthogonalLoop=1;jettySize=auto;html=1;" edge="1" parent="1" source="hs7QzX6rAlsoO4wkpSxL-16" target="hs7QzX6rAlsoO4wkpSxL-19">
          <mxGeometry relative="1" as="geometry" />
        </mxCell>
        <mxCell id="hs7QzX6rAlsoO4wkpSxL-16" value="FACILITY SENT A REQUIRED MATERIAL FOR THE REQUEST TO THE REQUESTOR" style="whiteSpace=wrap;html=1;" vertex="1" parent="1">
          <mxGeometry x="140" y="405" width="160.01" height="70" as="geometry" />
        </mxCell>
        <mxCell id="hs7QzX6rAlsoO4wkpSxL-31" value="" style="edgeStyle=orthogonalEdgeStyle;rounded=0;orthogonalLoop=1;jettySize=auto;html=1;" edge="1" parent="1" source="hs7QzX6rAlsoO4wkpSxL-19" target="hs7QzX6rAlsoO4wkpSxL-30">
          <mxGeometry relative="1" as="geometry" />
        </mxCell>
        <mxCell id="hs7QzX6rAlsoO4wkpSxL-33" value="PASSED" style="edgeLabel;html=1;align=center;verticalAlign=middle;resizable=0;points=[];" vertex="1" connectable="0" parent="hs7QzX6rAlsoO4wkpSxL-31">
          <mxGeometry x="-0.1575" y="1" relative="1" as="geometry">
            <mxPoint as="offset" />
          </mxGeometry>
        </mxCell>
        <mxCell id="hs7QzX6rAlsoO4wkpSxL-38" style="edgeStyle=orthogonalEdgeStyle;rounded=0;orthogonalLoop=1;jettySize=auto;html=1;entryX=0;entryY=0.5;entryDx=0;entryDy=0;" edge="1" parent="1" source="hs7QzX6rAlsoO4wkpSxL-19" target="hs7QzX6rAlsoO4wkpSxL-21">
          <mxGeometry relative="1" as="geometry">
            <Array as="points">
              <mxPoint x="140.51" y="570" />
              <mxPoint x="140.51" y="690" />
            </Array>
          </mxGeometry>
        </mxCell>
        <mxCell id="hs7QzX6rAlsoO4wkpSxL-39" value="FAILED" style="edgeLabel;html=1;align=center;verticalAlign=middle;resizable=0;points=[];" vertex="1" connectable="0" parent="hs7QzX6rAlsoO4wkpSxL-38">
          <mxGeometry x="-0.3135" relative="1" as="geometry">
            <mxPoint as="offset" />
          </mxGeometry>
        </mxCell>
        <mxCell id="hs7QzX6rAlsoO4wkpSxL-19" value="FACILITY VERIFY&amp;nbsp;&lt;div&gt;THE MATERIALS&lt;/div&gt;" style="rhombus;whiteSpace=wrap;html=1;" vertex="1" parent="1">
          <mxGeometry x="152.51" y="510" width="135" height="120" as="geometry" />
        </mxCell>
        <mxCell id="hs7QzX6rAlsoO4wkpSxL-21" value="BACK TO REQUESTOR" style="whiteSpace=wrap;html=1;" vertex="1" parent="1">
          <mxGeometry x="160.01" y="660" width="120" height="60" as="geometry" />
        </mxCell>
        <mxCell id="hs7QzX6rAlsoO4wkpSxL-45" value="" style="edgeStyle=orthogonalEdgeStyle;rounded=0;orthogonalLoop=1;jettySize=auto;html=1;" edge="1" parent="1" source="hs7QzX6rAlsoO4wkpSxL-30" target="hs7QzX6rAlsoO4wkpSxL-44">
          <mxGeometry relative="1" as="geometry" />
        </mxCell>
        <mxCell id="hs7QzX6rAlsoO4wkpSxL-30" value="FACILITY START THE ACTIVITY" style="whiteSpace=wrap;html=1;" vertex="1" parent="1">
          <mxGeometry x="350.38" y="540" width="120" height="60" as="geometry" />
        </mxCell>
        <mxCell id="hs7QzX6rAlsoO4wkpSxL-37" style="edgeStyle=orthogonalEdgeStyle;rounded=0;orthogonalLoop=1;jettySize=auto;html=1;entryX=0.5;entryY=1;entryDx=0;entryDy=0;" edge="1" parent="1" source="hs7QzX6rAlsoO4wkpSxL-21" target="hs7QzX6rAlsoO4wkpSxL-19">
          <mxGeometry relative="1" as="geometry" />
        </mxCell>
        <mxCell id="hs7QzX6rAlsoO4wkpSxL-43" style="edgeStyle=orthogonalEdgeStyle;rounded=0;orthogonalLoop=1;jettySize=auto;html=1;entryX=1;entryY=0.5;entryDx=0;entryDy=0;" edge="1" parent="1" source="hs7QzX6rAlsoO4wkpSxL-40" target="hs7QzX6rAlsoO4wkpSxL-30">
          <mxGeometry relative="1" as="geometry" />
        </mxCell>
        <mxCell id="hs7QzX6rAlsoO4wkpSxL-40" value="FACILITY WILL CREATE A SCOPE OF WORK FOR THE REQUEST THEN SENT IT TO REQUESTOR" style="whiteSpace=wrap;html=1;" vertex="1" parent="1">
          <mxGeometry x="510.08" y="537.5" width="184.86" height="65" as="geometry" />
        </mxCell>
        <mxCell id="hs7QzX6rAlsoO4wkpSxL-47" value="" style="edgeStyle=orthogonalEdgeStyle;rounded=0;orthogonalLoop=1;jettySize=auto;html=1;" edge="1" parent="1" source="hs7QzX6rAlsoO4wkpSxL-44" target="hs7QzX6rAlsoO4wkpSxL-46">
          <mxGeometry relative="1" as="geometry" />
        </mxCell>
        <mxCell id="hs7QzX6rAlsoO4wkpSxL-44" value="THE ACTIVTY WILL SENT TO THE INCHARGE PERSON" style="whiteSpace=wrap;html=1;" vertex="1" parent="1">
          <mxGeometry x="335.57" y="630" width="149.62" height="60" as="geometry" />
        </mxCell>
        <mxCell id="hs7QzX6rAlsoO4wkpSxL-58" style="edgeStyle=orthogonalEdgeStyle;rounded=0;orthogonalLoop=1;jettySize=auto;html=1;entryX=0;entryY=0.5;entryDx=0;entryDy=0;" edge="1" parent="1" source="hs7QzX6rAlsoO4wkpSxL-46" target="hs7QzX6rAlsoO4wkpSxL-48">
          <mxGeometry relative="1" as="geometry" />
        </mxCell>
        <mxCell id="hs7QzX6rAlsoO4wkpSxL-46" value="WHEN THE ACTIVITY IS DONE. THE INCHARGE PERSON WILL ATTACHED PROOF. THEN PROCEED TO 2ND APPROVER" style="whiteSpace=wrap;html=1;" vertex="1" parent="1">
          <mxGeometry x="308.17" y="720" width="204.43" height="70" as="geometry" />
        </mxCell>
        <mxCell id="hs7QzX6rAlsoO4wkpSxL-59" style="edgeStyle=orthogonalEdgeStyle;rounded=0;orthogonalLoop=1;jettySize=auto;html=1;entryX=0;entryY=0.5;entryDx=0;entryDy=0;" edge="1" parent="1">
          <mxGeometry relative="1" as="geometry">
            <mxPoint x="235.11" y="904.83" as="sourcePoint" />
            <mxPoint x="300.0099999999999" y="904.83" as="targetPoint" />
          </mxGeometry>
        </mxCell>
        <mxCell id="hs7QzX6rAlsoO4wkpSxL-60" value="PASSED" style="edgeLabel;html=1;align=center;verticalAlign=middle;resizable=0;points=[];" vertex="1" connectable="0" parent="hs7QzX6rAlsoO4wkpSxL-59">
          <mxGeometry x="-0.2879" y="1" relative="1" as="geometry">
            <mxPoint x="2" y="1" as="offset" />
          </mxGeometry>
        </mxCell>
        <mxCell id="hs7QzX6rAlsoO4wkpSxL-48" value="2ND&amp;nbsp;&lt;span style=&quot;background-color: transparent; color: light-dark(rgb(0, 0, 0), rgb(255, 255, 255));&quot;&gt;APPROVER&lt;/span&gt;&lt;div&gt;&lt;div&gt;APPROVED??&lt;/div&gt;&lt;/div&gt;" style="rhombus;whiteSpace=wrap;html=1;" vertex="1" parent="1">
          <mxGeometry x="120" y="850" width="115.11" height="110" as="geometry" />
        </mxCell>
        <mxCell id="hs7QzX6rAlsoO4wkpSxL-66" style="edgeStyle=orthogonalEdgeStyle;rounded=0;orthogonalLoop=1;jettySize=auto;html=1;entryX=0;entryY=0.5;entryDx=0;entryDy=0;" edge="1" parent="1" source="hs7QzX6rAlsoO4wkpSxL-52" target="hs7QzX6rAlsoO4wkpSxL-56">
          <mxGeometry relative="1" as="geometry" />
        </mxCell>
        <mxCell id="hs7QzX6rAlsoO4wkpSxL-67" value="PASSED" style="edgeLabel;html=1;align=center;verticalAlign=middle;resizable=0;points=[];" vertex="1" connectable="0" parent="hs7QzX6rAlsoO4wkpSxL-66">
          <mxGeometry x="-0.1798" y="1" relative="1" as="geometry">
            <mxPoint y="1" as="offset" />
          </mxGeometry>
        </mxCell>
        <mxCell id="hs7QzX6rAlsoO4wkpSxL-52" value="3RD&amp;nbsp;&lt;span style=&quot;background-color: transparent; color: light-dark(rgb(0, 0, 0), rgb(255, 255, 255));&quot;&gt;APPROVER&lt;/span&gt;&lt;div&gt;&lt;div&gt;APPROVED??&lt;/div&gt;&lt;/div&gt;" style="rhombus;whiteSpace=wrap;html=1;" vertex="1" parent="1">
          <mxGeometry x="300.01" y="850" width="115.11" height="110" as="geometry" />
        </mxCell>
        <mxCell id="hs7QzX6rAlsoO4wkpSxL-70" style="edgeStyle=orthogonalEdgeStyle;rounded=0;orthogonalLoop=1;jettySize=auto;html=1;entryX=0;entryY=0.5;entryDx=0;entryDy=0;" edge="1" parent="1" source="hs7QzX6rAlsoO4wkpSxL-56" target="hs7QzX6rAlsoO4wkpSxL-57">
          <mxGeometry relative="1" as="geometry" />
        </mxCell>
        <mxCell id="hs7QzX6rAlsoO4wkpSxL-71" value="PASSED" style="edgeLabel;html=1;align=center;verticalAlign=middle;resizable=0;points=[];" vertex="1" connectable="0" parent="hs7QzX6rAlsoO4wkpSxL-70">
          <mxGeometry x="-0.1502" relative="1" as="geometry">
            <mxPoint as="offset" />
          </mxGeometry>
        </mxCell>
        <mxCell id="hs7QzX6rAlsoO4wkpSxL-56" value="REQUESTOR REVIEW" style="rhombus;whiteSpace=wrap;html=1;" vertex="1" parent="1">
          <mxGeometry x="477.51" y="850" width="115.11" height="110" as="geometry" />
        </mxCell>
        <mxCell id="hs7QzX6rAlsoO4wkpSxL-75" value="" style="edgeStyle=orthogonalEdgeStyle;rounded=0;orthogonalLoop=1;jettySize=auto;html=1;" edge="1" parent="1" target="hs7QzX6rAlsoO4wkpSxL-74">
          <mxGeometry relative="1" as="geometry">
            <mxPoint x="710" y="950" as="sourcePoint" />
            <Array as="points">
              <mxPoint x="710" y="1020" />
            </Array>
          </mxGeometry>
        </mxCell>
        <mxCell id="hs7QzX6rAlsoO4wkpSxL-76" value="PASSED" style="edgeLabel;html=1;align=center;verticalAlign=middle;resizable=0;points=[];" vertex="1" connectable="0" parent="hs7QzX6rAlsoO4wkpSxL-75">
          <mxGeometry x="-0.7412" y="-2" relative="1" as="geometry">
            <mxPoint x="2" y="13" as="offset" />
          </mxGeometry>
        </mxCell>
        <mxCell id="hs7QzX6rAlsoO4wkpSxL-57" value="1ST APPROVER&lt;div&gt;APPROVED??&lt;/div&gt;" style="rhombus;whiteSpace=wrap;html=1;" vertex="1" parent="1">
          <mxGeometry x="650" y="850" width="120" height="110" as="geometry" />
        </mxCell>
        <mxCell id="hs7QzX6rAlsoO4wkpSxL-61" style="edgeStyle=orthogonalEdgeStyle;rounded=0;orthogonalLoop=1;jettySize=auto;html=1;exitX=0.5;exitY=0;exitDx=0;exitDy=0;entryX=0.129;entryY=1.002;entryDx=0;entryDy=0;entryPerimeter=0;" edge="1" parent="1" source="hs7QzX6rAlsoO4wkpSxL-48" target="hs7QzX6rAlsoO4wkpSxL-46">
          <mxGeometry relative="1" as="geometry" />
        </mxCell>
        <mxCell id="hs7QzX6rAlsoO4wkpSxL-62" value="FAILED" style="edgeLabel;html=1;align=center;verticalAlign=middle;resizable=0;points=[];" vertex="1" connectable="0" parent="hs7QzX6rAlsoO4wkpSxL-61">
          <mxGeometry x="-0.8708" y="-1" relative="1" as="geometry">
            <mxPoint as="offset" />
          </mxGeometry>
        </mxCell>
        <mxCell id="hs7QzX6rAlsoO4wkpSxL-63" style="edgeStyle=orthogonalEdgeStyle;rounded=0;orthogonalLoop=1;jettySize=auto;html=1;entryX=0.391;entryY=1.018;entryDx=0;entryDy=0;entryPerimeter=0;" edge="1" parent="1" source="hs7QzX6rAlsoO4wkpSxL-52" target="hs7QzX6rAlsoO4wkpSxL-46">
          <mxGeometry relative="1" as="geometry" />
        </mxCell>
        <mxCell id="hs7QzX6rAlsoO4wkpSxL-64" value="FAILED" style="edgeLabel;html=1;align=center;verticalAlign=middle;resizable=0;points=[];" vertex="1" connectable="0" parent="hs7QzX6rAlsoO4wkpSxL-63">
          <mxGeometry x="-0.7502" y="1" relative="1" as="geometry">
            <mxPoint as="offset" />
          </mxGeometry>
        </mxCell>
        <mxCell id="hs7QzX6rAlsoO4wkpSxL-68" style="edgeStyle=orthogonalEdgeStyle;rounded=0;orthogonalLoop=1;jettySize=auto;html=1;entryX=0.643;entryY=0.99;entryDx=0;entryDy=0;entryPerimeter=0;" edge="1" parent="1" source="hs7QzX6rAlsoO4wkpSxL-56" target="hs7QzX6rAlsoO4wkpSxL-46">
          <mxGeometry relative="1" as="geometry">
            <Array as="points">
              <mxPoint x="535" y="830" />
              <mxPoint x="440" y="830" />
            </Array>
          </mxGeometry>
        </mxCell>
        <mxCell id="hs7QzX6rAlsoO4wkpSxL-69" value="FAILED" style="edgeLabel;html=1;align=center;verticalAlign=middle;resizable=0;points=[];" vertex="1" connectable="0" parent="hs7QzX6rAlsoO4wkpSxL-68">
          <mxGeometry x="-0.7656" relative="1" as="geometry">
            <mxPoint y="8" as="offset" />
          </mxGeometry>
        </mxCell>
        <mxCell id="hs7QzX6rAlsoO4wkpSxL-72" style="edgeStyle=orthogonalEdgeStyle;rounded=0;orthogonalLoop=1;jettySize=auto;html=1;entryX=0.887;entryY=1.022;entryDx=0;entryDy=0;entryPerimeter=0;" edge="1" parent="1" source="hs7QzX6rAlsoO4wkpSxL-57" target="hs7QzX6rAlsoO4wkpSxL-46">
          <mxGeometry relative="1" as="geometry">
            <Array as="points">
              <mxPoint x="710" y="820" />
              <mxPoint x="490" y="820" />
            </Array>
          </mxGeometry>
        </mxCell>
        <mxCell id="hs7QzX6rAlsoO4wkpSxL-73" value="FAILED" style="edgeLabel;html=1;align=center;verticalAlign=middle;resizable=0;points=[];" vertex="1" connectable="0" parent="hs7QzX6rAlsoO4wkpSxL-72">
          <mxGeometry x="-0.8964" y="-1" relative="1" as="geometry">
            <mxPoint as="offset" />
          </mxGeometry>
        </mxCell>
        <mxCell id="hs7QzX6rAlsoO4wkpSxL-78" value="" style="edgeStyle=orthogonalEdgeStyle;rounded=0;orthogonalLoop=1;jettySize=auto;html=1;" edge="1" parent="1" source="hs7QzX6rAlsoO4wkpSxL-74" target="hs7QzX6rAlsoO4wkpSxL-77">
          <mxGeometry relative="1" as="geometry" />
        </mxCell>
        <mxCell id="hs7QzX6rAlsoO4wkpSxL-74" value="REQUEST COMPLETED" style="whiteSpace=wrap;html=1;" vertex="1" parent="1">
          <mxGeometry x="530" y="1000" width="120" height="40" as="geometry" />
        </mxCell>
        <mxCell id="hs7QzX6rAlsoO4wkpSxL-77" value="END" style="ellipse;whiteSpace=wrap;html=1;" vertex="1" parent="1">
          <mxGeometry x="375.01" y="1000" width="80" height="40" as="geometry" />
        </mxCell>
      </root>
    </mxGraphModel>
  </diagram>
</mxfile>
